{
  "accessors": [
    {
      "bufferView": 2,
      "componentType": 5126,
      "count": 70,
      "max": [
        0.16124999523162842,
        0.26875001192092896,
        0.16124999523162842
      ],
      "min": [
        -0.16124999523162842,
        -0.26875001192092896,
        -0.06679193675518036
      ],
      "type": "VEC3"
    },
    {
      "bufferView": 2,
      "byteOffset": 840,
      "componentType": 5126,
      "count": 70,
      "max": [
        0.6862313747406006,
        0.8229432702064514,
        0.9704776406288147
      ],
      "min": [
        -0.9704776406288147,
        -0.8229432702064514,
        -0.9238796234130859
      ],
      "type": "VEC3"
    },
    {
      "bufferView": 1,
      "componentType": 5126,
      "count": 70,
      "max": [
        0.53515625,
        0.53515625
      ],
      "min": [
        0.07839624583721161,
        0.034375011920928955
      ],
      "type": "VEC2"
    },
    {
      "bufferView": 0,
      "componentType": 5125,
      "count": 90,
      "type": "SCALAR"
    },
    {
      "bufferView": 2,
      "byteOffset": 1680,
      "componentType": 5126,
      "count": 70,
      "max": [
        0.16124999523162842,
        0.26875001192092896,
        0.16124999523162842
      ],
      "min": [
        -0.16124999523162842,
        -0.26875001192092896,
        -0.06679193675518036
      ],
      "type": "VEC3"
    },
    {
      "bufferView": 2,
      "byteOffset": 2520,
      "componentType": 5126,
      "count": 70,
      "max": [
        0.9704776406288147,
        0.8229432702064514,
        0.9704776406288147
      ],
      "min": [
        -0.6862313747406006,
        -0.8229432702064514,
        -0.9238796234130859
      ],
      "type": "VEC3"
    },
    {
      "bufferView": 1,
      "byteOffset": 560,
      "componentType": 5126,
      "count": 70,
      "max": [
        0.53515625,
        0.5390625
      ],
      "min": [
        0.0,
        0.109375
      ],
      "type": "VEC2"
    },
    {
      "bufferView": 0,
      "byteOffset": 360,
      "componentType": 5125,
      "count": 90,
      "type": "SCALAR"
    },
    {
      "bufferView": 2,
      "byteOffset": 3360,
      "componentType": 5126,
      "count": 93,
      "max": [
        0.35350528359413147,
        0.75,
        0.35350528359413147
      ],
      "min": [
        -0.35350528359413147,
        0.0,
        -0.35350528359413147
      ],
      "type": "VEC3"
    },
    {
      "bufferView": 2,
      "byteOffset": 4476,
      "componentType": 5126,
      "count": 93,
      "max": [
        0.9660810828208923,
        1.0,
        0.9660810828208923
      ],
      "min": [
        -0.9660810828208923,
        -1.0,
        -0.9660810828208923
      ],
      "type": "VEC3"
    },
    {
      "bufferView": 1,
      "byteOffset": 1120,
      "componentType": 5126,
      "count": 93,
      "max": [
        0.5209812521934509,
        0.5078125
      ],
      "min": [
        0.0038865183014422655,
        0.0007812380790710449
      ],
      "type": "VEC2"
    },
    {
      "bufferView": 0,
      "byteOffset": 720,
      "componentType": 5125,
      "count": 144,
      "type": "SCALAR"
    },
    {
      "bufferView": 2,
      "byteOffset": 5592,
      "componentType": 5126,
      "count": 264,
      "max": [
        0.5,
        0.71875,
        0.5
      ],
      "min": [
        -0.5,
        -0.71875,
        -0.5
      ],
      "type": "VEC3"
    },
    {
      "bufferView": 2,
      "byteOffset": 8760,
      "componentType": 5126,
      "count": 264,
      "max": [
        0.9845372438430786,
        0.9662476181983948,
        0.9845372438430786
      ],
      "min": [
        -0.9845372438430786,
        -0.9662476181983948,
        -0.9845372438430786
      ],
      "type": "VEC3"
    },
    {
      "bufferView": 1,
      "byteOffset": 1864,
      "componentType": 5126,
      "count": 264,
      "max": [
        0.5055687427520752,
        0.5078125
      ],
      "min": [
        0.0008312499849125743,
        0.0
      ],
      "type": "VEC2"
    },
    {
      "bufferView": 0,
      "byteOffset": 1296,
      "componentType": 5125,
      "count": 360,
      "type": "SCALAR"
    },
    {
      "bufferView": 2,
      "byteOffset": 11928,
      "componentType": 5126,
      "count": 4,
      "max": [
        0.125,
        0.0,
        0.3125
      ],
      "min": [
        -0.625,
        0.0,
        -0.3125
      ],
      "type": "VEC3"
    },
    {
      "bufferView": 2,
      "byteOffset": 11976,
      "componentType": 5126,
      "count": 4,
      "max": [
        0.0,
        1.0,
        0.0
      ],
      "min": [
        0.0,
        1.0,
        0.0
      ],
      "type": "VEC3"
    },
    {
      "bufferView": 1,
      "byteOffset": 3976,
      "componentType": 5126,
      "count": 4,
      "max": [
        0.09375,
        0.078125
      ],
      "min": [
        0.0,
        0.0
      ],
      "type": "VEC2"
    },
    {
      "bufferView": 0,
      "byteOffset": 2736,
      "componentType": 5125,
      "count": 6,
      "type": "SCALAR"
    },
    {
      "bufferView": 2,
      "byteOffset": 12024,
      "componentType": 5126,
      "count": 4,
      "max": [
        2.125,
        0.0,
        0.3125
      ],
      "min": [
        1.375,
        0.0,
        -0.3125
      ],
      "type": "VEC3"
    },
    {
      "bufferView": 2,
      "byteOffset": 12072,
      "componentType": 5126,
      "count": 4,
      "max": [
        0.0,
        1.0,
        0.0
      ],
      "min": [
        0.0,
        1.0,
        0.0
      ],
      "type": "VEC3"
    },
    {
      "bufferView": 1,
      "byteOffset": 4008,
      "componentType": 5126,
      "count": 4,
      "max": [
        0.09375,
        0.1640625
      ],
      "min": [
        0.0,
        0.0859375
      ],
      "type": "VEC2"
    },
    {
      "bufferView": 0,
      "byteOffset": 2760,
      "componentType": 5125,
      "count": 6,
      "type": "SCALAR"
    },
    {
      "bufferView": 2,
      "byteOffset": 12120,
      "componentType": 5126,
      "count": 93,
      "max": [
        0.32447752356529236,
        0.08118849247694016,
        0.20662033557891846
      ],
      "min": [
        -0.32447752356529236,
        -0.9838114976882935,
        -0.1760846972465515
      ],
      "type": "VEC3"
    },
    {
      "bufferView": 2,
      "byteOffset": 13236,
      "componentType": 5126,
      "count": 93,
      "max": [
        0.9780510067939758,
        1.0,
        0.9922000169754028
      ],
      "min": [
        -0.9780510067939758,
        -1.0,
        -0.9922000169754028
      ],
      "type": "VEC3"
    },
    {
      "bufferView": 1,
      "byteOffset": 4040,
      "componentType": 5126,
      "count": 93,
      "max": [
        0.542466402053833,
        0.53125
      ],
      "min": [
        0.04213203117251396,
        0.0
      ],
      "type": "VEC2"
    },
    {
      "bufferView": 0,
      "byteOffset": 2784,
      "componentType": 5125,
      "count": 144,
      "type": "SCALAR"
    }
  ],
  "asset": {
    "extras": {
      "author": "Survi (https://sketchfab.com/survi_6756)",
      "license": "CC-BY-4.0 (http://creativecommons.org/licenses/by/4.0/)",
      "source": "https://sketchfab.com/3d-models/wooper-low-poly-97603d14c6f7411cbe14f79383b3d105",
      "title": "Wooper low-poly"
    },
    "generator": "Sketchfab-16.56.0",
    "version": "2.0"
  },
  "bufferViews": [
    {
      "buffer": 0,
      "byteLength": 3360,
      "name": "floatBufferViews",
      "target": 34963
    },
    {
      "buffer": 0,
      "byteLength": 4784,
      "byteOffset": 3360,
      "byteStride": 8,
      "name": "floatBufferViews",
      "target": 34962
    },
    {
      "buffer": 0,
      "byteLength": 14352,
      "byteOffset": 8144,
      "byteStride": 12,
      "name": "floatBufferViews",
      "target": 34962
    }
  ],
  "buffers": [
    {
      "byteLength": 22496,
      "uri": "scene.bin"
    }
  ],
  "extensionsUsed": [
    "KHR_materials_unlit"
  ],
  "images": [
    {
      "uri": "textures/material_0_baseColor.png"
    }
  ],
  "materials": [
    {
      "alphaCutoff": 0.05,
      "alphaMode": "MASK",
      "doubleSided": true,
      "extensions": {
        "KHR_materials_unlit": {}
      },
      "name": "material_0",
      "pbrMetallicRoughness": {
        "baseColorTexture": {
          "index": 0
        },
        "metallicFactor": 0.0
      }
    }
  ],
  "meshes": [
    {
      "name": "Object_0",
      "primitives": [
        {
          "attributes": {
            "NORMAL": 1,
            "POSITION": 0,
            "TEXCOORD_0": 2
          },
          "indices": 3,
          "material": 0,
          "mode": 4
        }
      ]
    },
    {
      "name": "Object_1",
      "primitives": [
        {
          "attributes": {
            "NORMAL": 5,
            "POSITION": 4,
            "TEXCOORD_0": 6
          },
          "indices": 7,
          "material": 0,
          "mode": 4
        }
      ]
    },
    {
      "name": "Object_2",
      "primitives": [
        {
          "attributes": {
            "NORMAL": 9,
            "POSITION": 8,
            "TEXCOORD_0": 10
          },
          "indices": 11,
          "material": 0,
          "mode": 4
        }
      ]
    },
    {
      "name": "Object_3",
      "primitives": [
        {
          "attributes": {
            "NORMAL": 13,
            "POSITION": 12,
            "TEXCOORD_0": 14
          },
          "indices": 15,
          "material": 0,
          "mode": 4
        }
      ]
    },
    {
      "name": "Object_4",
      "primitives": [
        {
          "attributes": {
            "NORMAL": 17,
            "POSITION": 16,
            "TEXCOORD_0": 18
          },
          "indices": 19,
          "material": 0,
          "mode": 4
        }
      ]
    },
    {
      "name": "Object_5",
      "primitives": [
        {
          "attributes": {
            "NORMAL": 21,
            "POSITION": 20,
            "TEXCOORD_0": 22
          },
          "indices": 23,
          "material": 0,
          "mode": 4
        }
      ]
    },
    {
      "name": "Object_6",
      "primitives": [
        {
          "attributes": {
            "NORMAL": 25,
            "POSITION": 24,
            "TEXCOORD_0": 26
          },
          "indices": 27,
          "material": 0,
          "mode": 4
        }
      ]
    }
  ],
  "nodes": [
    {
      "children": [
        1
      ],
      "matrix": [
        1.0,
        0.0,
        0.0,
        0.0,
        0.0,
        2.220446049250313e-16,
        -1.0,
        0.0,
        0.0,
        1.0,
        2.220446049250313e-16,
        0.0,
        0.0,
        0.0,
        0.0,
        1.0
      ],
      "name": "Sketchfab_model"
    },
    {
      "children": [
        2
      ],
      "name": "root"
    },
    {
      "children": [
        3
      ],
      "matrix": [
        1.0,
        0.0,
        0.0,
        0.0,
        0.0,
        2.220446049250313e-16,
        1.0,
        0.0,
        0.0,
        -1.0,
        2.220446049250313e-16,
        0.0,
        0.0,
        0.0,
        0.0,
        1.0
      ],
      "name": "GLTF_SceneRootNode"
    },
    {
      "children": [
        4
      ],
      "name": "_10"
    },
    {
      "children": [
        5,
        7,
        9,
        11,
        18
      ],
      "matrix": [
        0.9961659569833144,
        -0.08715322746818231,
        0.007596123313680252,
        0.0,
        0.08748362885868423,
        0.9923750261061459,
        -0.0868240879165575,
        0.0,
        2.879641219025045e-05,
        0.08715573706133974,
        0.9961946981730335,
        0.0,
        0.0,
        0.6775000095367432,
        0.7874969244003296,
        1.0
      ],
      "name": "bone_9"
    },
    {
      "children": [
        6
      ],
      "matrix": [
        0.7077327846724305,
        -0.2931525446023542,
        0.642787594072079,
        0.0,
        0.593858326834291,
        -0.24598410262159764,
        -0.7660444562210628,
        0.0,
        0.3826834111238474,
        0.9238795413096949,
        6.571123667420409e-08,
        0.0,
        0.32249999046325684,
        -0.49000000953674316,
        -0.948746919631958,
        1.0
      ],
      "name": "sphere_0"
    },
    {
      "mesh": 0,
      "name": "Object_6"
    },
    {
      "children": [
        8
      ],
      "matrix": [
        0.7077327627139793,
        0.29315252349929954,
        -0.642787627873492,
        0.0,
        -0.695100166842175,
        0.12629360304470083,
        -0.7077327771736788,
        0.0,
        -0.1262936840749317,
        0.9476874610313151,
        0.2931524885904966,
        0.0,
        -0.32249999046325684,
        -0.42750000953674316,
        -1.011246919631958,
        1.0
      ],
      "name": "sphere_1"
    },
    {
      "mesh": 1,
      "name": "Object_8"
    },
    {
      "children": [
        10
      ],
      "matrix": [
        1.0,
        0.0,
        0.0,
        0.0,
        0.0,
        1.0,
        0.0,
        0.0,
        0.0,
        0.0,
        1.0,
        0.0,
        0.0,
        -0.36500000953674316,
        -0.7874969244003296,
        1.0
      ],
      "name": "cylinder_2"
    },
    {
      "mesh": 2,
      "name": "Object_10"
    },
    {
      "children": [
        12,
        14,
        16
      ],
      "matrix": [
        0.9990482216297576,
        0.042585432600554377,
        0.009440963332330654,
        0.0,
        -0.04361938626824971,
        0.9753667905736613,
        0.2162336074425452,
        0.0,
        -3.896597263602919e-10,
        -0.2164396099983992,
        0.9762960079933446,
        0.0,
        -0.0006354145589284599,
        0.7636711001396179,
        -0.7879349589347839,
        1.0
      ],
      "name": "bone2_6"
    },
    {
      "children": [
        13
      ],
      "matrix": [
        0.0,
        1.0,
        0.0,
        0.0,
        -1.0,
        0.0,
        0.0,
        0.0,
        0.0,
        0.0,
        1.0,
        0.0,
        0.0006354145589284599,
        -0.003671099664643407,
        0.00043802542495541275,
        1.0
      ],
      "name": "sphere_3"
    },
    {
      "mesh": 3,
      "name": "Object_13"
    },
    {
      "children": [
        15
      ],
      "matrix": [
        1.0,
        0.0,
        -0.0,
        0.0,
        -0.0,
        0.0,
        -1.0,
        0.0,
        0.0,
        1.0,
        0.0,
        0.0,
        -0.7503176927566528,
        0.0018355498323217034,
        -0.00021901271247770637,
        1.0
      ],
      "name": "plane_4"
    },
    {
      "mesh": 4,
      "name": "Object_15"
    },
    {
      "children": [
        17
      ],
      "matrix": [
        1.0,
        0.0,
        -0.0,
        0.0,
        -0.0,
        0.0,
        -1.0,
        0.0,
        0.0,
        1.0,
        0.0,
        0.0,
        -0.7503176927566528,
        0.0018355498323217034,
        -0.00021901271247770637,
        1.0
      ],
      "name": "plane_5"
    },
    {
      "mesh": 5,
      "name": "Object_17"
    },
    {
      "children": [
        19
      ],
      "matrix": [
        0.7372773427729152,
        0.28551675218795725,
        0.6122926620936673,
        0.0,
        0.6698104321689099,
        -0.1906242788874286,
        -0.7176464096310564,
        0.0,
        -0.08818222491753835,
        0.9392244505541201,
        -0.3317850609806057,
        0.0,
        0.0,
        -0.25,
        -0.5,
        1.0
      ],
      "name": "cylinder_8"
    },
    {
      "mesh": 6,
      "name": "Object_19"
    }
  ],
  "samplers": [
    {
      "magFilter": 9728,
      "minFilter": 9728,
      "wrapS": 33071,
      "wrapT": 33071
    }
  ],
  "scene": 0,
  "scenes": [
    {
      "name": "Sketchfab_Scene",
      "nodes": [
        0
      ]
    }
  ],
  "textures": [
    {
      "sampler": 0,
      "source": 0
    }
  ]
}
